<?xml version="1.0" encoding="UTF-8"?><svg id="Layer_2" xmlns="http://www.w3.org/2000/svg" viewBox="0 0 441.69 258.21"><defs><style>.cls-1{fill:#472692;}</style></defs><path class="cls-1" d="M220.83,166.75c-1.47,0-2.67,1.19-2.67,2.67s1.19,2.67,2.67,2.67c14.17,0,25.69,11.53,25.69,25.69,0,1.47,1.19,2.67,2.67,2.67s2.67-1.19,2.67-2.67c0-17.11-13.92-31.03-31.02-31.03h0Z"/><path class="cls-1" d="M435.73,107.37c-9.62-14.29-27.89-19.02-43.08-10.94-3.61,1.91-6.91,4.42-10.27,6.75-4.86,3.38-9.93,6.1-16.09,4.96-8.09-1.49-13.32-7.55-14.38-17.1-.61-5.53-.58-11.14-.58-16.72-.06-18.52.06-37.03,0-55.53-.03-7.55-2.49-13.96-10.09-17.03-2.3-.93-4.92-1.54-7.39-1.56-23.91-.12-47.8-.19-71.69-.03-2.94.02-6.02.95-8.76,2.13-4.62,2.01-5.96,6.27-3.55,10.71,1.4,2.57,3.16,4.96,4.98,7.25,10.02,12.53,13.46,26.29,8.05,41.77-3.53,10.12-10.58,17.17-19.95,21.71-16.28,7.91-32.42,7.11-47.95-2.27-19.95-12.06-23.91-38.57-11.27-56.59,2.13-3.05,4.45-5.95,6.61-8.96.75-1.03,1.37-2.16,1.85-3.33,1.98-4.61.75-8.73-3.95-10.35-3.97-1.37-8.37-2.02-12.59-2.07-10.88-.11-21.74-.17-32.62-.17h-1.65c-6.18.02-12.36.03-18.52.06-4.93.02-9.85.03-14.77.06-2.47.02-5.09.61-7.39,1.54-7.6,3.08-10.05,9.49-10.09,17.04-.03,6.55-.03,13.09-.02,19.64,0,11.95.05,23.92.02,35.87-.02,3.97,0,7.97-.22,11.95,0,.2-.02.4-.03.61-.02.64-.06,1.29-.12,1.95-.02.19-.03.37-.06.56-.36,3.13-1.18,6.27-2.33,9.14-3.46,8.56-12.33,12.25-20.86,8.7-3.92-1.63-7.5-4.2-10.97-6.71-9.03-6.54-18.93-9.67-29.88-6.99-13.42,3.27-21.79,12.34-24.81,25.54-2.8,12.23-1.4,24.03,6.88,34.46,10.27,12.92,28.89,16.36,44.73,6.41,3.14-1.98,6.04-4.34,9.14-6.4,12.33-8.2,26.54-1.63,27.81,13.15.72,8.26.67,16.61.72,24.93.11,16.25-.05,32.5.09,48.75.09,10.85,6.77,17.71,17.63,17.82,19.38.2,38.77.08,58.15.06,2.69-.02,5.39-.02,8.06-.05l27.77.03c-.53-10.43-5.06-20.45-13-28.4-9.4-9.4-14.12-22.46-12.95-35.78,1.91-22.09,20.02-39.63,42.07-40.81,25.85-1.32,47.11,19.17,47.11,44.84,0,12.17-4.78,23.56-13.45,32.08-7.75,7.63-12.19,17.54-12.67,28.12l33.21.03v-.09c13.31.08,26.61.11,39.91.05l-.02.05c7.14,0,14.27-.03,21.4-.11,10.85-.11,17.53-6.97,17.62-17.82.12-13.35.03-26.72.06-40.08-.02-.06-.02-.12,0-.19.09-10.88.22-21.77.42-32.67.05-2.99,1.17-6.23,2.63-8.89,4.47-8.19,13.14-10.97,21.65-6.97,3.41,1.6,6.41,4.09,9.53,6.27,9.71,6.74,20.17,9.98,31.91,6.47,14.01-4.17,23.39-16.96,23.92-32.19.31-8.79-.86-17.2-5.9-24.7v.04ZM144.87,202.36c0-1.62,1.32-2.94,2.96-2.94h10.69c1.62,0,2.94,1.32,2.94,2.94s-1.32,2.96-2.94,2.96h-10.69c-1.63,0-2.96-1.32-2.96-2.96ZM164.39,228.94l-9.88,4.09c-1.51.62-3.22-.09-3.84-1.6-.62-1.51.08-3.24,1.59-3.84l9.88-4.09c1.51-.64,3.22.09,3.84,1.59.62,1.51-.08,3.24-1.59,3.86h0ZM165.98,179.65c-.62,1.49-2.33,2.21-3.84,1.59l-9.88-4.09c-1.51-.62-2.21-2.33-1.59-3.84.62-1.51,2.33-2.23,3.84-1.6l9.88,4.09c1.51.62,2.21,2.35,1.59,3.86h0ZM178.85,160.38c-1.15,1.15-3.02,1.15-4.17,0l-7.56-7.56c-1.15-1.15-1.15-3,0-4.16,1.15-1.15,3.02-1.15,4.17,0l7.56,7.55c1.15,1.15,1.15,3.02,0,4.17ZM198.12,147.51c-1.51.62-3.24-.08-3.86-1.59l-4.09-9.88c-.62-1.51.09-3.22,1.6-3.84,1.51-.62,3.22.08,3.84,1.59l4.09,9.88c.62,1.51-.09,3.22-1.59,3.84h0ZM223.78,140.05c0,1.62-1.32,2.94-2.96,2.94s-2.94-1.32-2.94-2.94v-10.69c0-1.63,1.32-2.96,2.94-2.96s2.96,1.32,2.96,2.96v10.69ZM251.5,136.04l-4.09,9.88c-.62,1.51-2.35,2.21-3.86,1.59-1.51-.62-2.23-2.33-1.59-3.84l4.08-9.88c.64-1.51,2.35-2.21,3.86-1.59,1.51.62,2.23,2.33,1.6,3.84h0ZM277.27,175.79l9.88-4.09c1.51-.62,3.22.09,3.84,1.6.62,1.51-.09,3.22-1.59,3.84l-9.88,4.09c-1.51.62-3.24-.09-3.86-1.59-.62-1.51.09-3.24,1.6-3.86h0ZM274.54,152.82l-7.56,7.56c-1.15,1.15-3,1.15-4.17,0-1.15-1.15-1.15-3.02,0-4.17l7.56-7.55c1.15-1.15,3.02-1.15,4.17,0,1.15,1.15,1.15,3,0,4.16ZM291,231.43c-.47,1.14-1.57,1.82-2.72,1.82-.37,0-.76-.08-1.12-.22l-9.88-4.09c-1.51-.62-2.23-2.35-1.6-3.86.62-1.49,2.35-2.23,3.86-1.59l9.88,4.09c1.49.61,2.21,2.33,1.59,3.84h0ZM293.83,205.31h-10.69c-1.62,0-2.94-1.32-2.94-2.96s1.32-2.94,2.94-2.94h10.69c1.63,0,2.96,1.32,2.96,2.94s-1.32,2.96-2.96,2.96Z"/></svg>