<?xml version="1.0" encoding="UTF-8"?>
<svg id="Layer_2" data-name="Layer 2" xmlns="http://www.w3.org/2000/svg" viewBox="0 0 1381.59 258.22">
  <defs>
    <style>
      .cls-1 {
        fill: #472692;
      }
    </style>
  </defs>
  <g id="Layer_1-2" data-name="Layer 1">
    <g>
      <g>
        <g>
          <path class="cls-1" d="M542.45,169.03v-57.6l-22.56,57.6h-7.44l-22.56-57.6v57.6h-17.04v-80.04h23.88l19.44,49.92,19.44-49.92h24v80.04h-17.16Z"/>
          <path class="cls-1" d="M609.89,169.03v-6c-3.96,4.68-10.8,7.44-18.36,7.44-9.24,0-20.16-6.24-20.16-19.2s10.92-18.48,20.16-18.48c7.68,0,14.52,2.4,18.36,7.08v-8.04c0-5.88-5.04-9.72-12.72-9.72-6.24,0-12,2.28-16.92,6.84l-5.76-10.2c7.08-6.24,16.2-9.12,25.32-9.12,13.2,0,25.32,5.28,25.32,21.96v37.44h-15.24ZM609.89,147.91c-2.52-3.36-7.32-5.04-12.24-5.04-6,0-10.92,3.24-10.92,8.76s4.92,8.52,10.92,8.52c4.92,0,9.72-1.68,12.24-5.04v-7.2Z"/>
          <path class="cls-1" d="M640.25,169.03v-57.96h15.24v7.92c4.08-5.16,11.28-9.24,18.48-9.24v14.88c-1.08-.24-2.52-.36-4.2-.36-5.04,0-11.76,2.76-14.28,6.48v38.28h-15.24Z"/>
          <path class="cls-1" d="M721.01,169.03l-15.36-22.32-6.96,7.44v14.88h-15.24v-80.04h15.24v47.88l21.96-25.8h18.72l-22.92,26.28,23.64,31.68h-19.08Z"/>
          <path class="cls-1" d="M771.41,109.63c17.28,0,29.04,12.96,29.04,31.92v3.36h-43.08c.96,7.32,6.84,13.44,16.68,13.44,5.4,0,11.76-2.16,15.48-5.76l6.72,9.84c-5.88,5.4-14.88,8.04-23.88,8.04-17.64,0-30.96-11.88-30.96-30.48,0-16.8,12.36-30.36,30-30.36ZM757.13,134.59h28.56c-.36-5.52-4.2-12.84-14.28-12.84-9.48,0-13.56,7.08-14.28,12.84Z"/>
          <path class="cls-1" d="M814.49,154.63v-30.24h-9.6v-13.32h9.6v-15.84h15.36v15.84h11.76v13.32h-11.76v26.16c0,3.6,1.92,6.36,5.28,6.36,2.28,0,4.44-.84,5.28-1.68l3.24,11.52c-2.28,2.04-6.36,3.72-12.72,3.72-10.68,0-16.44-5.52-16.44-15.84Z"/>
          <path class="cls-1" d="M850.49,93.43c0-5.04,4.2-9.12,9.12-9.12s9.12,4.08,9.12,9.12-4.08,9.12-9.12,9.12-9.12-4.08-9.12-9.12ZM852.05,169.03v-57.96h15.24v57.96h-15.24Z"/>
          <path class="cls-1" d="M921.53,169.03v-35.04c0-8.04-4.2-10.8-10.68-10.8-6,0-10.68,3.36-13.2,6.84v39h-15.24v-57.96h15.24v7.56c3.72-4.44,10.8-9,20.28-9,12.72,0,18.84,7.2,18.84,18.48v40.92h-15.24Z"/>
          <path class="cls-1" d="M957.53,172.87c4.68,5.16,10.8,7.2,18.12,7.2s15.96-3.24,15.96-14.64v-5.88c-4.56,5.76-10.8,9.12-17.88,9.12-14.52,0-25.56-10.2-25.56-29.52s10.92-29.52,25.56-29.52c6.96,0,13.2,3,17.88,8.88v-7.44h15.36v54c0,22.08-17.04,27.48-31.32,27.48-9.96,0-17.76-2.28-24.96-8.64l6.84-11.04ZM991.6,129.79c-2.52-3.84-8.04-6.6-13.08-6.6-8.64,0-14.64,6-14.64,15.96s6,15.96,14.64,15.96c5.04,0,10.56-2.88,13.08-6.6v-18.72Z"/>
        </g>
        <g>
          <path class="cls-1" d="M1036.95,169.03v-80.04h37.44c17.4,0,26.88,11.76,26.88,25.8s-9.6,25.56-26.88,25.56h-20.4v28.68h-17.04ZM1072.11,103.63h-18.12v22.08h18.12c6.72,0,11.76-4.32,11.76-11.04s-5.04-11.04-11.76-11.04Z"/>
          <path class="cls-1" d="M1150.59,169.03v-7.32c-3.96,4.44-10.92,8.76-20.4,8.76-12.72,0-18.72-6.96-18.72-18.24v-41.16h15.24v35.16c0,8.04,4.2,10.68,10.68,10.68,5.88,0,10.56-3.24,13.2-6.6v-39.24h15.24v57.96h-15.24Z"/>
          <path class="cls-1" d="M1178.43,169.03v-11.4l26.16-33.24h-26.16v-13.32h46.8v11.04l-26.52,33.6h27v13.32h-47.28Z"/>
          <path class="cls-1" d="M1235.91,169.03v-11.4l26.16-33.24h-26.16v-13.32h46.8v11.04l-26.52,33.6h27v13.32h-47.28Z"/>
          <path class="cls-1" d="M1295.91,169.03v-80.04h15.24v80.04h-15.24Z"/>
          <path class="cls-1" d="M1352.55,109.63c17.28,0,29.04,12.96,29.04,31.92v3.36h-43.08c.96,7.32,6.84,13.44,16.68,13.44,5.4,0,11.76-2.16,15.48-5.76l6.72,9.84c-5.88,5.4-14.88,8.04-23.88,8.04-17.64,0-30.96-11.88-30.96-30.48,0-16.8,12.36-30.36,30-30.36ZM1338.27,134.59h28.56c-.36-5.52-4.2-12.84-14.28-12.84-9.48,0-13.56,7.08-14.28,12.84Z"/>
        </g>
      </g>
      <g>
        <path class="cls-1" d="M220.85,166.74c-1.47,0-2.67,1.19-2.67,2.67s1.19,2.67,2.67,2.67c14.17,0,25.69,11.53,25.69,25.69,0,1.47,1.19,2.67,2.67,2.67s2.67-1.19,2.67-2.67c0-17.11-13.92-31.03-31.02-31.03Z"/>
        <path class="cls-1" d="M435.75,107.36c-9.62-14.29-27.89-19.02-43.08-10.94-3.61,1.91-6.91,4.42-10.27,6.75-4.86,3.38-9.93,6.1-16.09,4.96-8.09-1.49-13.32-7.55-14.38-17.1-.61-5.53-.58-11.14-.58-16.72-.06-18.52.06-37.03,0-55.53-.03-7.55-2.49-13.96-10.09-17.03-2.3-.93-4.92-1.54-7.39-1.56-23.91-.12-47.8-.19-71.69-.03-2.94.02-6.02.95-8.76,2.13-4.62,2.01-5.96,6.27-3.55,10.71,1.4,2.57,3.16,4.96,4.98,7.25,10.02,12.53,13.46,26.29,8.05,41.77-3.53,10.12-10.58,17.17-19.95,21.71-16.28,7.91-32.42,7.11-47.95-2.27-19.95-12.06-23.91-38.57-11.27-56.59,2.13-3.05,4.45-5.95,6.61-8.96.75-1.03,1.37-2.16,1.85-3.33,1.98-4.61.75-8.73-3.95-10.35-3.97-1.37-8.37-2.02-12.59-2.07-10.88-.11-21.74-.17-32.62-.17h-1.65c-6.18.02-12.36.03-18.52.06-4.93.02-9.85.03-14.77.06-2.47.02-5.09.61-7.39,1.54-7.6,3.08-10.05,9.49-10.09,17.04-.03,6.55-.03,13.09-.02,19.64,0,11.95.05,23.92.02,35.87-.02,3.97,0,7.97-.22,11.95,0,.2-.02.4-.03.61-.02.64-.06,1.29-.12,1.95-.02.19-.03.37-.06.56-.36,3.13-1.18,6.27-2.33,9.14-3.46,8.56-12.33,12.25-20.86,8.7-3.92-1.63-7.5-4.2-10.97-6.71-9.03-6.54-18.93-9.67-29.88-6.99-13.42,3.27-21.79,12.34-24.81,25.54-2.8,12.23-1.4,24.03,6.88,34.46,10.27,12.92,28.89,16.36,44.73,6.41,3.14-1.98,6.04-4.34,9.14-6.4,12.33-8.2,26.54-1.63,27.81,13.15.72,8.26.67,16.61.72,24.93.11,16.25-.05,32.5.09,48.75.09,10.85,6.77,17.71,17.63,17.82,19.38.2,38.77.08,58.15.06,2.69-.02,5.39-.02,8.06-.05l27.77.03c-.53-10.43-5.06-20.45-13-28.4-9.4-9.4-14.12-22.46-12.95-35.78,1.91-22.09,20.02-39.63,42.07-40.81,25.85-1.32,47.11,19.17,47.11,44.84,0,12.17-4.78,23.56-13.45,32.08-7.75,7.63-12.19,17.54-12.67,28.12l33.21.03v-.09c13.31.08,26.61.11,39.91.05l-.02.05c7.14,0,14.27-.03,21.4-.11,10.85-.11,17.53-6.97,17.62-17.82.12-13.35.03-26.72.06-40.08-.02-.06-.02-.12,0-.19.09-10.88.22-21.77.42-32.67.05-2.99,1.17-6.23,2.63-8.89,4.47-8.19,13.14-10.97,21.65-6.97,3.41,1.6,6.41,4.09,9.53,6.27,9.71,6.74,20.17,9.98,31.91,6.47,14.01-4.17,23.39-16.96,23.92-32.19.31-8.79-.86-17.2-5.9-24.7ZM144.89,202.35c0-1.62,1.32-2.94,2.96-2.94h10.69c1.62,0,2.94,1.32,2.94,2.94s-1.32,2.96-2.94,2.96h-10.69c-1.63,0-2.96-1.32-2.96-2.96ZM164.41,228.93l-9.88,4.09c-1.51.62-3.22-.09-3.84-1.6-.62-1.51.08-3.24,1.59-3.84l9.88-4.09c1.51-.64,3.22.09,3.84,1.59.62,1.51-.08,3.24-1.59,3.86ZM166,179.64c-.62,1.49-2.33,2.21-3.84,1.59l-9.88-4.09c-1.51-.62-2.21-2.33-1.59-3.84.62-1.51,2.33-2.23,3.84-1.6l9.88,4.09c1.51.62,2.21,2.35,1.59,3.86ZM178.87,160.37c-1.15,1.15-3.02,1.15-4.17,0l-7.56-7.56c-1.15-1.15-1.15-3,0-4.16,1.15-1.15,3.02-1.15,4.17,0l7.56,7.55c1.15,1.15,1.15,3.02,0,4.17ZM198.14,147.5c-1.51.62-3.24-.08-3.86-1.59l-4.09-9.88c-.62-1.51.09-3.22,1.6-3.84,1.51-.62,3.22.08,3.84,1.59l4.09,9.88c.62,1.51-.09,3.22-1.59,3.84ZM223.8,140.04c0,1.62-1.32,2.94-2.96,2.94s-2.94-1.32-2.94-2.94v-10.69c0-1.63,1.32-2.96,2.94-2.96s2.96,1.32,2.96,2.96v10.69ZM251.52,136.03l-4.09,9.88c-.62,1.51-2.35,2.21-3.86,1.59-1.51-.62-2.23-2.33-1.59-3.84l4.08-9.88c.64-1.51,2.35-2.21,3.86-1.59,1.51.62,2.23,2.33,1.6,3.84ZM277.29,175.78l9.88-4.09c1.51-.62,3.22.09,3.84,1.6.62,1.51-.09,3.22-1.59,3.84l-9.88,4.09c-1.51.62-3.24-.09-3.86-1.59-.62-1.51.09-3.24,1.6-3.86ZM274.56,152.81l-7.56,7.56c-1.15,1.15-3,1.15-4.17,0-1.15-1.15-1.15-3.02,0-4.17l7.56-7.55c1.15-1.15,3.02-1.15,4.17,0,1.15,1.15,1.15,3,0,4.16ZM291.02,231.42c-.47,1.14-1.57,1.82-2.72,1.82-.37,0-.76-.08-1.12-.22l-9.88-4.09c-1.51-.62-2.23-2.35-1.6-3.86.62-1.49,2.35-2.23,3.86-1.59l9.88,4.09c1.49.61,2.21,2.33,1.59,3.84ZM293.85,205.3h-10.69c-1.62,0-2.94-1.32-2.94-2.96s1.32-2.94,2.94-2.94h10.69c1.63,0,2.96,1.32,2.96,2.94s-1.32,2.96-2.96,2.96Z"/>
      </g>
    </g>
  </g>
</svg>