<?xml version="1.0" encoding="UTF-8"?><svg id="Layer_1" xmlns="http://www.w3.org/2000/svg" viewBox="0 0 92.22 95.01"><defs><style>.cls-1{fill:#7f67ad;}.cls-2{fill:#010101;}</style></defs><path class="cls-1" d="M43.08,73.59h0c-.47,0-.85-.38-.85-.86.01-7.13-1.08-14.18-3.24-20.97-.06-.2-.13-.4-.2-.61-2.5.36-5.09-.02-7.03-1.76-.97-.87-1.88-2.42-1.29-3.92.69-1.75,2.94-2.18,4.63-1.57,2.43.88,3.85,3.06,4.78,5.31.9-.23,1.77-.56,2.56-.94,1.82-.87,3.44-2.01,4.78-3.32-1.71-2.8-2.22-6.08-1.23-8.85.49-1.35,1.26-2.36,2.24-2.92,1.34-.76,3-.58,3.96.43.69.73.97,1.78.87,3.22-.19,2.71-1.3,5.39-3.2,7.76-.14.18-.29.35-.44.52.5.65,1.06,1.23,1.64,1.72.61.52,1.31.98,2.06,1.36.22-.36.47-.71.73-1.04,1.59-1.99,3.83-3.11,5.99-2.98,1.18.07,2.37.74,2.98,1.66.44.67.54,1.43.29,2.14-.24.66-.73,1.11-1.09,1.39-2.32,1.85-5.38,1.92-8.13.99-.46,1-.81,2.06-1.12,3.11-1.82,6.14-2.66,12.5-2.49,18.91.01.47-.36.86-.83.88-.47.01-.86-.36-.88-.83-.18-6.58.68-13.13,2.56-19.44.32-1.09.69-2.21,1.18-3.28-.86-.43-1.66-.96-2.36-1.55-.64-.54-1.22-1.14-1.74-1.78-1.46,1.38-3.17,2.55-5.04,3.45-.83.4-1.75.75-2.7,1,.05.15.1.29.14.44,2.21,6.96,3.33,14.19,3.32,21.5,0,.47-.38.85-.85.85h0ZM33.58,45.34c-.68,0-1.33.25-1.52.75-.25.64.26,1.5.84,2.03,1.42,1.28,3.33,1.61,5.26,1.4-.78-1.76-1.9-3.39-3.64-4.02-.29-.11-.62-.16-.94-.16h0ZM54.73,48.83c2.16.67,4.48.58,6.23-.82.3-.24.48-.45.55-.64.05-.13.08-.33-.11-.62-.31-.47-1.02-.85-1.66-.89-1.58-.1-3.33.8-4.56,2.34-.16.2-.31.41-.46.63h0ZM49.98,34.42c-.31,0-.63.08-.91.24-.79.45-1.24,1.34-1.48,2.01-.85,2.37-.32,4.86.84,6.94,1.7-2.09,2.76-4.49,2.92-6.91.07-.94-.07-1.56-.41-1.93-.22-.24-.58-.36-.96-.36h0Z"/><path class="cls-2" d="M74.32,33.25c-4.84-10.02-10.04-12.95-14.95-15.08-4.72-2.06-10.75-2.72-16.97-1.87-6.42.88-12.53,3.34-17.21,6.92-3.78,2.9-6.57,6.45-8.3,10.53-1.92,4.54-2.48,9.65-1.65,15.18,1.75,11.6,7.39,14.97,12.37,17.94,2.84,1.69,5.33,3.18,6.96,5.98-.32.05-.64.1-.96.15-.46.07-.78.51-.7.98.07.42.43.71.84.71.05,0,.1,0,.14-.01.48-.08.97-.15,1.45-.22.68,1.75.72,3.68.76,5.72.01.47.02.95.04,1.43.09,2.3.47,5.6,2.72,7.73.54.51,1.13.91,1.76,1.22-.06,1.37.38,3.08,1.82,3.91.85.49,1.78.53,2.59.54h.17c1.94,0,3.88-.2,5.75-.4.57-.06,1.28-.13,1.91-.54,1.43-.93,1.43-2.84,1.4-4.06,1.12-.96,2-2.23,2.52-3.56.9-2.28,1.04-4.72,1.18-7.08.04-.62.07-1.25.12-1.86.09-1.15.24-2.18.46-3.09.49.07.99.14,1.48.22.47.07.91-.25.98-.71.08-.47-.24-.9-.71-.98-.41-.07-.82-.13-1.23-.19.45-1.14,1.06-2.04,1.82-2.75,1-.92,2.27-1.5,3.62-2.11.68-.31,1.38-.63,2.06-1,3.85-2.12,7.37-7.12,9.18-13.04,2.13-6.97,1.63-14.29-1.42-20.61ZM51.93,89.54c-1.18.33-2.46.41-3.71.47-.09-.04-.19-.06-.29-.06h-.01c-2.96.05-6-.06-7.89-1.85-.18-.17-.35-.36-.51-.56,5.01-.49,10.08-.69,15.1-.6-.65,1.08-1.6,2.05-2.69,2.6ZM55.38,85.27c-.06-.01-.11-.02-.17-.02-5.52-.13-11.09.1-16.59.66-.34-.85-.56-1.85-.68-3.04.04.01.08.01.13.01.04,0,.07-.01.11-.01,5.86-.72,11.81-.93,17.71-.65.05,0,.1,0,.14,0-.12,1.06-.31,2.08-.65,3.06ZM56.26,79.27c-.03.44-.05.87-.08,1.29-.07-.02-.14-.04-.21-.04-5.99-.3-12.05-.07-18,.65-.04.01-.09.02-.13.03-.01-.35-.02-.71-.03-1.06-.01-.59-.02-1.18-.05-1.78,6.16-.52,12.41-.71,18.59-.58-.04.5-.07,1-.09,1.49ZM56.51,76.08c-6.28-.14-12.63.05-18.9.57-.1-.83-.26-1.64-.54-2.43,6.58-.82,13.2-.83,19.77-.02-.15.64-.25,1.28-.33,1.88ZM74.11,53.36c-1.66,5.43-4.95,10.16-8.37,12.04-.62.34-1.26.63-1.94.94-1.42.64-2.87,1.3-4.07,2.42-1.15,1.07-1.9,2.39-2.4,3.76-6.97-.86-14-.84-20.96.07-1.82-3.57-4.78-5.33-7.89-7.19-4.88-2.91-9.92-5.92-11.55-16.73-1.88-12.56,4.02-20.04,9.3-24.09,8.99-6.9,22.95-8.99,32.46-4.85,4.81,2.09,9.51,4.76,14.09,14.26,2.86,5.93,3.34,12.81,1.33,19.37Z"/><path class="cls-2" d="M49.45,10.5h-.01c-.47,0-.85-.39-.84-.87l.12-8.79c0-.47.4-.85.87-.84.47,0,.85.39.84.87l-.12,8.79c0,.47-.39.84-.85.84h0Z"/><path class="cls-2" d="M74.29,21.28c-.25,0-.51-.11-.67-.33-.29-.37-.22-.91.15-1.2,2.82-2.2,5.62-4.49,8.33-6.82.36-.31.9-.27,1.2.09s.27.9-.09,1.2c-2.73,2.35-5.55,4.66-8.39,6.87-.16.12-.34.18-.52.18h0Z"/><path class="cls-2" d="M86.5,68.34c-.14,0-.29-.04-.43-.11-2.46-1.41-4.93-2.89-7.34-4.38-.4-.25-.52-.78-.27-1.18.25-.4.78-.52,1.18-.27,2.39,1.49,4.84,2.95,7.28,4.35.41.23.55.76.32,1.17-.16.27-.45.43-.74.43h0Z"/><path class="cls-2" d="M22.35,19.67c-.29,0-.58-.15-.74-.42l-4.38-7.39c-.24-.41-.11-.93.3-1.17s.93-.11,1.17.3l4.38,7.39c.24.41.11.93-.3,1.17-.14.08-.29.12-.44.12h0Z"/><path class="cls-2" d="M8.21,40.23c-.07,0-.15,0-.22-.03l-7.35-1.97c-.46-.12-.73-.59-.6-1.05.12-.46.59-.73,1.05-.6l7.35,1.97c.46.12.73.59.6,1.05-.1.38-.45.63-.82.63Z"/><path class="cls-2" d="M1.35,68.14c-.26,0-.52-.12-.69-.35-.28-.38-.2-.92.19-1.19,2.22-1.63,4.5-3.24,6.78-4.8.39-.27.92-.17,1.19.22s.17.92-.22,1.19c-2.26,1.54-4.52,3.15-6.73,4.76-.15.11-.33.16-.5.16h0Z"/><path class="cls-2" d="M83.17,41.47c-.47,0-.85-.38-.85-.85,0-.47.38-.86.85-.86l8.2-.07c.47,0,.86.38.86.85,0,.47-.38.86-.85.86l-8.2.07h0Z"/><path class="cls-1" d="M20.47,44.74s-.06,0-.09,0c-.47-.05-.81-.47-.77-.93.69-6.95,4.42-13.61,9.98-17.84.38-.29.91-.21,1.2.16s.21.91-.16,1.2c-5.19,3.94-8.67,10.16-9.32,16.65-.04.44-.42.77-.85.77h0Z"/><path class="cls-1" d="M58.82,65.89c-.28,0-.56-.14-.72-.4-.25-.4-.13-.93.27-1.18,5.81-3.65,9.84-10.17,10.52-17,.05-.47.47-.81.93-.77.47.05.81.47.77.93-.73,7.34-5.06,14.34-11.31,18.27-.14.09-.3.13-.45.13h0Z"/><path class="cls-1" d="M59.04,66.3c-.34,0-.66-.2-.79-.53-.18-.44.03-.94.47-1.11,7.84-3.21,13.48-11.36,13.73-19.83.01-.47.41-.85.88-.83.47.01.84.41.83.88-.13,4.5-1.62,8.93-4.31,12.81-2.69,3.89-6.31,6.84-10.48,8.54-.11.04-.22.06-.32.06h0Z"/></svg>