<?xml version="1.0" encoding="UTF-8"?>
<svg id="Layer_1" data-name="Layer 1" xmlns="http://www.w3.org/2000/svg" viewBox="0 0 687.87 708.66">
  <defs>
    <style>
      .cls-1 {
        fill: #7f67ad;
      }

      .cls-1, .cls-2 {
        stroke-width: 0px;
      }

      .cls-2 {
        fill: #010101;
      }
    </style>
  </defs>
  <path class="cls-1" d="M321.31,548.9h-.01c-3.52,0-6.37-2.86-6.36-6.38.1-53.16-8.03-105.79-24.15-156.44-.48-1.49-.97-3.01-1.49-4.54-18.68,2.66-37.94-.14-52.45-13.16-7.21-6.47-14.05-18.02-9.6-29.27,5.16-13.05,21.94-16.25,34.52-11.72,18.16,6.53,28.7,22.85,35.66,39.57,6.69-1.74,13.18-4.18,19.07-7,13.59-6.49,25.66-14.99,35.67-24.78-12.72-20.91-16.58-45.36-9.17-65.98,3.62-10.07,9.41-17.59,16.74-21.76,9.97-5.67,22.38-4.31,29.51,3.23,5.12,5.42,7.25,13.27,6.5,24-1.41,20.22-9.67,40.22-23.89,57.86-1.07,1.32-2.16,2.63-3.28,3.91,3.76,4.85,7.92,9.19,12.23,12.84,4.56,3.86,9.77,7.3,15.36,10.11,1.66-2.67,3.47-5.27,5.47-7.76,11.88-14.87,28.59-23.16,44.7-22.2,8.78.53,17.71,5.49,22.22,12.35,3.29,4.99,4.05,10.66,2.14,15.95-1.77,4.92-5.48,8.29-8.12,10.4-17.27,13.81-40.16,14.32-60.61,7.39-3.45,7.45-6.05,15.4-8.36,23.18-13.6,45.81-19.85,93.26-18.56,141.02.09,3.52-2.68,6.45-6.2,6.54-3.53.09-6.45-2.68-6.54-6.2-1.32-49.11,5.1-97.9,19.09-144.99,2.42-8.15,5.16-16.49,8.81-24.48-6.43-3.23-12.4-7.16-17.63-11.58-4.8-4.06-9.13-8.52-12.96-13.25-10.87,10.28-23.63,19.02-37.62,25.7-6.22,2.97-13.04,5.56-20.13,7.47.37,1.1.72,2.2,1.07,3.28,16.52,51.91,24.85,105.85,24.75,160.33,0,3.51-2.86,6.36-6.37,6.36ZM250.48,338.18c-5.08,0-9.89,1.83-11.37,5.6-1.9,4.81,1.91,11.2,6.26,15.11,10.6,9.51,24.85,11.99,39.23,10.45-5.82-13.14-14.14-25.29-27.13-29.97-2.18-.79-4.61-1.18-6.98-1.18ZM408.19,364.24c16.08,4.97,33.43,4.31,46.43-6.08,2.27-1.82,3.57-3.33,4.09-4.76.34-.95.63-2.46-.8-4.62-2.3-3.5-7.61-6.35-12.35-6.63-11.8-.71-24.82,5.97-33.98,17.43-1.2,1.5-2.33,3.06-3.4,4.67ZM372.8,256.75c-2.28,0-4.67.58-6.76,1.77-5.87,3.34-9.25,10-11.04,14.99-6.35,17.67-2.39,36.26,6.23,51.78,12.71-15.58,20.56-33.5,21.81-51.51.49-6.98-.51-11.67-3.05-14.36-1.67-1.76-4.34-2.67-7.19-2.67Z"/>
  <path class="cls-2" d="M372.86,684.36c-1.98,0-3.97-.14-5.99-.43-1.83-.26-3.37-1.28-4.34-2.69-1.15,1.45-2.91,2.39-4.9,2.42-24.64.39-50.17-.61-67.77-17.28-16.78-15.9-19.6-40.54-20.26-57.68-.14-3.56-.21-7.17-.28-10.66-.32-15.8-.63-30.73-6.22-44.18-11.6-27.9-32.7-40.49-57.14-55.07-37.14-22.16-79.23-47.27-92.23-133.84-6.19-41.25-2.06-79.34,12.28-113.19,12.91-30.48,33.75-56.9,61.92-78.53,34.86-26.76,80.46-45.11,128.38-51.66,46.39-6.34,91.35-1.39,126.58,13.94,36.62,15.93,75.4,37.74,111.47,112.52,22.73,47.11,26.5,101.69,10.61,153.7-13.5,44.18-39.75,81.45-68.51,97.26-5.03,2.76-10.27,5.14-15.34,7.45-10.04,4.56-19.53,8.87-26.97,15.76-12.09,11.19-18.73,28.96-20.91,55.9-.37,4.58-.64,9.32-.91,13.9-1.01,17.61-2.06,35.81-8.8,52.83-8.12,20.48-27.67,39.55-50.69,39.56ZM357.53,670.92c2.17,0,4.1,1.09,5.25,2.76,1.36-1.72,3.58-2.69,5.91-2.36,18.83,2.72,36.21-14.05,43.01-31.21,5.99-15.1,6.93-31.5,7.93-48.86.27-4.65.54-9.46.93-14.19,1.54-19.08,5.8-46.49,24.95-64.22,8.95-8.29,19.83-13.23,30.36-18.01,5.07-2.3,9.87-4.48,14.47-7.01,25.57-14.06,50.09-49.31,62.46-89.82,14.95-48.93,11.43-100.23-9.9-144.44-34.21-70.9-69.22-90.77-105.08-106.37-70.97-30.87-175.06-15.34-242.12,36.14-39.41,30.25-83.43,85.99-69.36,179.72,12.1,80.61,49.75,103.07,86.15,124.79,25.28,15.08,49.16,29.33,62.38,61.12,6.52,15.68,6.86,32.52,7.19,48.81.07,3.44.14,6.99.28,10.44.91,23.71,6.09,39.25,16.29,48.92,14.11,13.37,36.78,14.14,58.8,13.79.03,0,.07,0,.1,0Z"/>
  <path class="cls-2" d="M251.78,557.13c-3.06,0-5.76-2.22-6.28-5.34-.57-3.47,1.78-6.75,5.25-7.32,66-10.88,132.95-10.99,198.99-.34,3.47.56,5.84,3.83,5.28,7.3-.56,3.47-3.83,5.84-7.3,5.28-64.68-10.44-130.25-10.32-194.89.33-.35.06-.7.09-1.04.09Z"/>
  <path class="cls-2" d="M278.95,584.62c-3.28,0-6.06-2.51-6.34-5.83-.3-3.51,2.3-6.59,5.81-6.89,49.12-4.16,99-5.64,148.28-4.39,3.52.09,6.3,3.01,6.21,6.53-.09,3.52-3,6.32-6.53,6.21-48.81-1.23-98.23.23-146.88,4.35-.18.02-.36.02-.54.02Z"/>
  <path class="cls-2" d="M284.02,618.17c-3.17,0-5.92-2.37-6.32-5.6-.43-3.49,2.06-6.67,5.55-7.1,44.4-5.44,89.57-7.09,134.25-4.91,3.51.17,6.22,3.16,6.05,6.67-.17,3.51-3.16,6.23-6.67,6.05-43.96-2.14-88.4-.52-132.08,4.83-.26.03-.52.05-.78.05Z"/>
  <path class="cls-2" d="M284.72,653.89c-3.22,0-5.98-2.43-6.33-5.7-.37-3.5,2.16-6.64,5.66-7.01,42.28-4.51,85.27-6.31,127.77-5.35,3.52.08,6.31,2.99,6.23,6.51-.08,3.52-3,6.3-6.51,6.23-41.96-.94-84.4.84-126.13,5.29-.23.02-.46.04-.68.04Z"/>
  <g>
    <path class="cls-2" d="M309.59,673.05c-1.19,9.83,1.64,21.14,10.22,26.09,4.81,2.78,10.61,3.11,16.16,3.15,14.53.09,29.01-1.43,43.46-2.94,3.97-.42,8.1-.89,11.44-3.06,7.52-4.88,7.77-15.6,7.54-25.71-12.46,5.86-26.63,6.61-40.38,7.26-15.56.73-31.65,1.39-46.18-4.21l-2.25-.56Z"/>
    <path class="cls-2" d="M337.15,708.66c-.41,0-.82,0-1.23,0-6.05-.04-13.03-.38-19.31-4-11.92-6.88-14.65-21.74-13.36-32.37.22-1.81,1.21-3.45,2.72-4.48,1.51-1.03,3.38-1.37,5.16-.93l2.25.56c.25.06.5.14.74.24,13.53,5.21,29.5,4.46,43.59,3.79,13.01-.61,26.47-1.25,37.97-6.66,1.95-.92,4.23-.79,6.07.35,1.83,1.13,2.97,3.12,3.02,5.27.2,9,.54,24.06-10.44,31.19-4.7,3.05-10,3.61-14.25,4.05-13.99,1.47-28.45,2.98-42.93,2.98ZM316.03,681.68c.77,4.98,2.95,9.63,6.96,11.94,3.58,2.07,8.59,2.27,13.01,2.29,14.19.07,28.71-1.44,42.76-2.91,3.05-.32,6.5-.68,8.64-2.07,2.95-1.92,4.1-6.11,4.5-11.12-11.21,3.32-22.94,3.87-33.57,4.37-13.3.63-28.14,1.33-42.29-2.52Z"/>
  </g>
  <path class="cls-2" d="M368.85,78.33s-.06,0-.09,0c-3.52-.05-6.33-2.94-6.28-6.46l.89-65.59c.05-3.52,2.96-6.32,6.46-6.28,3.52.05,6.33,2.94,6.28,6.46l-.89,65.59c-.05,3.49-2.89,6.29-6.37,6.29Z"/>
  <path class="cls-2" d="M554.1,158.69c-1.9,0-3.77-.84-5.03-2.45-2.16-2.78-1.67-6.78,1.11-8.94,21.01-16.38,41.91-33.49,62.11-50.86,2.67-2.29,6.69-1.99,8.98.68,2.29,2.67,1.99,6.69-.68,8.98-20.36,17.5-41.41,34.75-62.59,51.25-1.16.91-2.54,1.35-3.91,1.35Z"/>
  <path class="cls-2" d="M645.18,509.74c-1.08,0-2.17-.27-3.17-.85-18.35-10.53-36.75-21.53-54.71-32.69-2.99-1.86-3.9-5.79-2.05-8.77,1.86-2.99,5.79-3.91,8.77-2.05,17.83,11.09,36.11,22.01,54.33,32.46,3.05,1.75,4.11,5.65,2.35,8.7-1.18,2.05-3.32,3.2-5.53,3.2Z"/>
  <path class="cls-2" d="M166.73,146.71c-2.18,0-4.29-1.11-5.49-3.12l-32.7-55.1c-1.8-3.03-.8-6.93,2.23-8.73,3.03-1.8,6.93-.8,8.73,2.23l32.7,55.1c1.8,3.03.8,6.93-2.23,8.73-1.02.6-2.14.89-3.25.89Z"/>
  <path class="cls-2" d="M61.22,300.06c-.55,0-1.1-.07-1.65-.22l-54.84-14.71c-3.4-.91-5.41-4.41-4.5-7.8.91-3.4,4.41-5.42,7.8-4.5l54.84,14.71c3.4.91,5.41,4.41,4.5,7.8-.76,2.85-3.34,4.72-6.15,4.72Z"/>
  <path class="cls-2" d="M10.08,508.25c-1.96,0-3.9-.9-5.15-2.61-2.08-2.84-1.46-6.83,1.38-8.9,16.58-12.14,33.58-24.17,50.54-35.77,2.9-1.99,6.87-1.24,8.86,1.66,1.99,2.9,1.24,6.87-1.66,8.86-16.84,11.52-33.73,23.47-50.2,35.53-1.13.83-2.45,1.23-3.76,1.23Z"/>
  <path class="cls-2" d="M620.36,309.31c-3.49,0-6.34-2.82-6.37-6.32-.03-3.52,2.8-6.39,6.32-6.42l61.14-.49c3.48-.03,6.39,2.8,6.42,6.32.03,3.52-2.8,6.39-6.32,6.42l-61.14.49h-.05Z"/>
  <path class="cls-1" d="M152.69,333.67c-.21,0-.42-.01-.64-.03-3.5-.35-6.06-3.47-5.71-6.97,5.16-51.81,32.99-101.54,74.45-133.03,2.8-2.13,6.8-1.58,8.93,1.22,2.13,2.8,1.58,6.8-1.22,8.93-38.69,29.39-64.66,75.8-69.48,124.15-.33,3.29-3.1,5.74-6.33,5.74Z"/>
  <path class="cls-1" d="M438.73,491.44c-2.12,0-4.19-1.05-5.4-2.98-1.87-2.98-.98-6.91,2-8.79,43.32-27.26,73.38-75.84,78.44-126.77.35-3.5,3.47-6.05,6.97-5.71,3.5.35,6.06,3.47,5.71,6.97-5.44,54.76-37.76,106.99-84.33,136.3-1.05.66-2.23.98-3.39.98Z"/>
  <path class="cls-1" d="M440.33,494.52c-2.51,0-4.89-1.49-5.9-3.96-1.33-3.26.23-6.98,3.48-8.31,58.47-23.92,100.57-84.72,102.37-147.87.1-3.52,3.03-6.32,6.55-6.19,3.52.1,6.29,3.03,6.19,6.55-.96,33.54-12.07,66.59-32.14,95.58-20.07,28.99-47.09,51.02-78.14,63.73-.79.32-1.61.48-2.41.48Z"/>
</svg>