<?xml version="1.0" encoding="UTF-8"?><svg id="Layer_1" xmlns="http://www.w3.org/2000/svg" viewBox="0 0 95.93 94.5"><defs><style>.cls-1,.cls-2{fill:#010101;}.cls-2{opacity:.13;}.cls-3{fill:#492f8e;}</style></defs><path class="cls-3" d="M63.9,59.63c.32.01.65-.02.97-.07-.22.06-.45.09-.69.09h-.01c-.09,0-.18,0-.27-.02Z"/><path class="cls-3" d="M81.15,29.21c0,.28-.17.53-.41.67-.25.14-.55.15-.79.01-2.12-1.16-4.6-1.25-6.47-.24-1.98,1.06-3.09,3.43-2.54,5.41.14.49.36.88.64,1.13.22.2.55.36.99.49,2.25.66,4.72-.23,7.06-1.19.27-.11.58-.06.81.12.23.18.35.48.3.77-.79,4.77-.91,9.14-.36,13.35.01.13,0,.26-.04.38l-.03-.36c-.01-.23-.11-.43-.28-.58-.16-.13-.36-.19-.56-.19-.02,0-.04,0-.06,0-.25.03-.5.06-.75.08-.08.01-.16.02-.24.03-3.29.33-6.62.38-9.92.14h-.02c-.3,0-.58.14-.73.4-.16.26-.15.6.02.85.11.18.21.37.3.56.97,2.1.25,4.92-1.68,6.21-.57.39-1.21.63-1.85.71-.17.03-.34.04-.51.04-.42.01-.83-.05-1.21-.19-1.4-.49-2.72-1.91-3.14-3.36-.44-1.54-.6-2.72-.18-4.5.06-.25,0-.51-.17-.71-.16-.19-.41-.3-.67-.29-1.62.1-3.19.13-4.86.16-1.97.04-4,.08-6.18.23-.2-3.56-.42-6.93-.64-10.2-.01-.18-.03-.45.02-.56.08-.14.46-.19,1.85.37,2.56,1.02,5.73.18,7.39-1.96,1.71-2.21,1.63-5.56-.19-7.62-1.86-2.11-5.32-2.51-7.56-.88l-.16.11c-.37.27-1.23.91-1.43.72-.13-.1-.14-.57-.15-.75l-.37-10.72-.02-.5c0-.11-.03-.21-.07-.31,1.48,0,2.9-.05,4.27-.1,1.62-.05,3.28-.11,5.06-.1.81,0,2.18-.1,2.39-.83.09-.29-.02-.69-.12-1.11-.03-.1-.05-.19-.07-.29-.79-3.31.85-6.95,3.72-8.27,1.56-.72,3.49-.67,5.15.14,1.52.74,2.6,2.01,2.96,3.49.5,2.08-.31,4.13-1.02,5.93l-.02.04c-.19.49-.18.64-.15.69,0,.02.1.14.69.22,3.17.46,6.69.43,10.77-.07.22-.03.44.03.61.17.17.14.28.34.3.56.33,3.71.44,7.86.32,11.69Z"/><path class="cls-1" d="M14.4,9.82c-.36,0-.69-.24-.79-.61-.69-2.72-1.26-5.5-1.7-8.27-.07-.44.23-.86.67-.93.44-.07.86.23.93.67.43,2.72.99,5.46,1.67,8.13.11.43-.15.88-.59.99-.07.02-.13.03-.2.03h0Z"/><path class="cls-1" d="M8.84,11.27c-.24,0-.48-.11-.64-.31-1.15-1.49-2.24-3.05-3.22-4.66-.23-.38-.11-.88.27-1.12.38-.23.88-.11,1.12.27.95,1.55,2,3.07,3.12,4.51.27.35.21.86-.14,1.14-.15.11-.32.17-.5.17Z"/><path class="cls-1" d="M6.51,15.09s-.07,0-.1,0c-1.86-.22-3.75-.36-5.62-.41-.45-.01-.8-.38-.79-.83.01-.45.38-.8.83-.79,1.92.05,3.87.19,5.78.42.44.05.76.46.71.9-.05.41-.4.71-.8.71h0Z"/><path class="cls-1" d="M79.59,94.5s-.07,0-.11,0c-.44-.06-.76-.46-.7-.91l.73-5.65c.06-.44.46-.76.91-.7s.76.46.7.91l-.73,5.65c-.05.41-.4.71-.8.71Z"/><path class="cls-1" d="M87.93,91.05c-.24,0-.47-.1-.63-.3-1-1.23-1.94-2.52-2.8-3.85-.25-.38-.14-.88.24-1.12.38-.24.88-.14,1.12.24.83,1.28,1.74,2.53,2.71,3.71.28.35.23.86-.12,1.14-.15.12-.33.18-.51.18h0Z"/><path class="cls-1" d="M88.56,82.66c-.37,0-.7-.25-.79-.62-.1-.44.16-.87.6-.98,2.19-.53,4.43-.91,6.67-1.15.45-.05.84.28.89.72.05.45-.28.84-.72.89-2.17.23-4.34.6-6.46,1.11-.06.02-.13.02-.19.02h0Z"/><path class="cls-1" d="M49.96,29.5c.09-.04.18-.08.27-.11-.06.01-.12.04-.17.06-.03.02-.07.03-.1.05ZM49.96,29.5c.09-.04.18-.08.27-.11-.06.01-.12.04-.17.06-.03.02-.07.03-.1.05Z"/><path class="cls-1" d="M86.46,58.68c-1.62-.26-3.23.27-4.52.69-.4.13-.78.26-1.18.38,0-2.55-.19-5.69-.4-9.24l-.02-.4-.03-.36c-.01-.23-.11-.43-.28-.58-.16-.13-.36-.19-.56-.19-.02,0-.04,0-.06,0-.25.03-.5.06-.75.08-.08.01-.16.02-.24.03-3.29.33-6.62.38-9.92.14h-.02c-.3,0-.58.14-.73.4-.16.26-.15.6.02.85.11.18.21.37.3.56.97,2.1.25,4.92-1.68,6.21-.57.39-1.21.63-1.85.71-.17.03-.34.04-.51.04-.42.01-.83-.05-1.21-.19-1.4-.49-2.72-1.91-3.14-3.36-.44-1.54-.6-2.72-.18-4.5.06-.25,0-.51-.17-.71-.16-.19-.41-.3-.67-.29-1.62.1-3.19.13-4.86.16-1.97.04-4,.08-6.18.23-.2-3.56-.42-6.93-.64-10.2-.01-.18-.03-.45.02-.56.08-.14.46-.19,1.85.37,2.56,1.02,5.73.18,7.39-1.96,1.71-2.21,1.63-5.56-.19-7.62-1.86-2.11-5.32-2.51-7.56-.88l-.16.11c-.37.27-1.23.91-1.43.72-.13-.1-.14-.57-.15-.75l-.37-10.72-.02-.5c0-.11-.03-.21-.07-.31-.05-.1-.11-.19-.19-.26-.17-.15-.38-.22-.6-.21-2.81.19-5.17.06-7.45-.06-1.57-.08-3.04-.16-4.52-.12-.42.01-.77.34-.79.76-.06,1.01.2,1.77.43,2.44.18.51.34.98.38,1.57.14,1.8-.33,2.48-1.43,3.59-.62.62-1.58,1.37-2.68,1.44-1.13.07-4.41-.72-4.72-5.08-.07-1.02.17-1.47.57-2.21.21-.4.46-.86.69-1.47.1-.24.07-.51-.07-.73-.14-.21-.38-.35-.63-.37-3.46-.22-6.97-.26-10.42-.12-.41.01-.74.32-.78.72-.42,3.9-.48,6.62-.54,10.64,0,.13,0,.26.01.4,0,.21.01.55-.03.68-.08,0-.24-.04-.64-.22-2.79-1.34-5.18-1.56-7.1-.66-.94.45-1.78,1.18-2.42,2.12-.99,1.45-1.49,3.33-1.44,5.42.05,1.89.54,3.56,1.42,4.84.92,1.32,2.55,2.02,4.72,2.03,1.37.01,2.55-.89,3.58-1.69.18-.14.36-.28.53-.4.4-.29.74-.42.91-.44,0,.06,0,.13,0,.18.2,2.54.2,5.77.2,8.63,0,.61,0,1.19.01,1.75,0,.19.07.38.19.52-.14,4.12-.08,7.88.19,11.76.02.27.17.52.41.65.23.14.52.14.76.02,1.03-.52,2.19-.82,3.34-.87.7-.04,1.29.03,1.8.2,1.45.47,2.56,2.04,2.57,3.64.01,1.59-.98,3.18-2.45,3.98-1.5.8-3.35.74-4.95-.17-.26-.15-.58-.14-.83.01-.25.16-.4.44-.39.73.19,3.79-.06,7.67-.76,11.86-.04.24.03.48.18.66.16.18.38.29.62.29l11.59-.06v.72c-.02,1.17-.03,2.36.42,3.53.74,1.93,2.75,3.31,4.88,3.35h.1c2.01,0,3.97-1.14,5.01-2.94.87-1.52,1.01-3.36.42-5.09,3.84-.44,7.7-.28,11.5.47.13.03.27.02.39-.02,2.08.12,4.18.17,6.28.17s4.35-.06,6.5-.18c.3-.02.56-.19.69-.46.13-.26.1-.58-.07-.82-.14-.2-.26-.45-.38-.81-.72-2.16-.33-4.44.98-5.84.7-.74,1.78-1.2,2.87-1.22.92,0,1.74.29,2.3.85.75.74,1.13,1.94,1.07,3.29-.06,1.15-.4,2.3-.77,3.52-.05.17-.1.35-.16.52-.07.25-.02.53.15.74.17.21.43.32.7.3,3.89-.32,8.07-.48,12.42-.48.22,0,.43-.09.58-.25.15-.16.23-.37.23-.59-.07-1.85-.22-3.9-.37-5.88-.15-1.96-.31-3.99-.37-5.81v-.24s.09.04.13.05h.02c1.52.64,4.37,1.53,6.45.42,2.25-1.2,3.67-3.64,3.54-6.06-.14-2.51-2.07-5.59-4.62-6ZM14.71,39.72c-.02-.24-.04-.6-.24-.93-.22-.38-.56-.63-.99-.72-.9-.19-1.89.44-2.27.72-.18.13-.37.28-.56.43-.82.63-1.76,1.35-2.58,1.35-1.13-.01-2.64-.24-3.39-1.33-.7-1.02-1.1-2.39-1.13-3.96-.03-1.22.14-2.99,1.15-4.46.48-.71,1.1-1.25,1.77-1.57,1.46-.68,3.38-.47,5.72.65.45.21,1.28.61,2.08.2.95-.47.92-1.53.9-2.17,0-.11-.01-.22,0-.33.05-3.72.11-6.32.45-9.79,2.78-.09,5.59-.06,8.37.08-.04.09-.08.17-.13.25-.44.83-.86,1.61-.75,3.09.35,5.06,4.13,6.73,6.43,6.59,1.27-.08,2.57-.74,3.73-1.92,1.2-1.2,2.1-2.32,1.9-4.86-.06-.79-.27-1.41-.46-1.96-.12-.37-.24-.71-.3-1.07,1.15.01,2.32.07,3.55.13,2.01.11,4.25.23,6.81.11l.36,10.39c.02.47.05,1.33.68,1.9,1.19,1.07,2.63,0,3.48-.62l.16-.11c.16-.12.33-.22.51-.31.03-.02.07-.03.1-.05.05-.02.11-.05.17-.06.18-.08.37-.14.57-.18,1.42-.31,3.06.14,4.03,1.24,1.31,1.48,1.36,3.97.13,5.56-1.23,1.58-3.6,2.2-5.5,1.44-.99-.39-3.05-1.21-3.89.39-.27.51-.23,1.05-.21,1.42.22,3.24.44,6.59.63,10.11l-8.98-.03c.76-2.03.5-4.42-.76-6.09-1.53-2.04-5.22-3.34-7.67-1.95-1.55.88-2.5,2.44-2.75,4.5-.14,1.19,0,2.49.43,3.87-2.13-.28-4.19-.36-6.27-.36h-.01c-1.21,0-2.44.03-3.68.05-.46.01-.92.02-1.38.03v-.92c0-2.89-.01-6.15-.21-8.75ZM35.12,81.54c-.26.04-.49.2-.61.43-.12.24-.12.52.01.75.81,1.55.84,3.21.05,4.56-.75,1.31-2.22,2.17-3.67,2.14-1.46-.03-2.89-1-3.4-2.32-.33-.87-.32-1.86-.31-2.92v-.83c0-.21-.01-.67-.33-1.05-.41-.48-1.03-.48-1.3-.48l-10.63.05c.53-3.47.75-6.75.68-9.94,1.77.6,3.66.48,5.27-.38,1.98-1.07,3.31-3.25,3.3-5.41-.01-2.31-1.56-4.49-3.69-5.19-.69-.22-1.47-.31-2.37-.27-.98.04-1.96.24-2.89.57-.2-3.36-.24-6.66-.12-10.24.41-.01.82-.02,1.22-.03,3.76-.08,7.31-.15,11.01.51.05,0,.1.01.14.01h.01c.24,0,.47-.11.63-.31.18-.23.23-.54.11-.82-.67-1.62-.94-3.09-.79-4.37.19-1.56.84-2.66,1.94-3.29,1.65-.93,4.49.07,5.58,1.52,1.13,1.5,1.15,3.8.05,5.47-.16.25-.17.57-.03.83s.42.43.72.43l10.34.03.38,8.38h0c-.08.01-.2.01-.36-.02-1.03-.17-2.2-.37-3.38-.24-1.4.16-2.6.8-3.3,1.75-.57.79-.85,1.8-.85,3.11,0,1.17.21,2.18.64,3.01.73,1.4,2.2,2.45,3.92,2.81,1.26.27,2.51.15,3.53-.06.24,3.25.38,6.56.52,9.77.03.73.06,1.47.1,2.21-4.01-.69-8.09-.75-12.12-.17ZM86.78,69.31c-1.09.58-2.94.41-5.06-.47h-.03c-.33-.15-.88-.38-1.46-.14-.44.19-.95.66-.91,1.87.06,1.85.22,3.9.37,5.88.13,1.66.26,3.38.33,4.97-3.65.02-7.18.15-10.52.39.32-1.09.6-2.16.65-3.29.09-1.8-.47-3.45-1.54-4.51-.88-.88-2.11-1.35-3.47-1.33-1.53.02-3.03.67-4.03,1.73-1.71,1.82-2.24,4.75-1.34,7.46,0,.01,0,.02,0,.02-3.62.17-7.29.16-10.91-.02-.04-.82-.07-1.63-.11-2.44-.15-3.55-.31-7.21-.6-10.8-.02-.25-.15-.47-.35-.61-.21-.14-.46-.17-.7-.1-.93.29-2.32.57-3.69.28-1.25-.26-2.3-1-2.81-1.97-.31-.59-.46-1.35-.46-2.26s.18-1.65.54-2.15c.43-.59,1.22-.99,2.17-1.09.96-.11,1.96.06,2.93.22,1.43.25,1.95-.41,2.13-.81.14-.33.13-.64.12-.85l-.38-8.31c2.17-.16,4.2-.2,6.17-.23,1.33-.03,2.6-.06,3.89-.11-.22,1.59,0,2.85.4,4.28.57,1.97,2.24,3.75,4.16,4.43.51.18,1.06.28,1.62.28.32.01.65-.02.97-.07.61-.15,1.16-.45,1.62-.71l.13-.07c2.64-1.46,3.84-4.65,3.09-7.89,2.86.07,5.66.01,8.83-.17.07-.01.14-.02.21-.02.24,4,.44,7.46.37,10.09-.01.25.1.49.3.65.19.16.45.22.7.16.86-.21,1.61-.45,2.33-.69,1.18-.39,2.53-.83,3.75-.63,1.71.28,3.15,2.64,3.26,4.49.1,1.78-1,3.64-2.68,4.54Z"/><path class="cls-2" d="M16.63,48.54c-.42,0-.78-.33-.81-.75-.27-3.69-.35-7.44-.25-11.13.01-.45.39-.8.83-.79.45.01.8.39.79.83-.1,3.64-.02,7.34.24,10.97.03.45-.3.84-.75.87-.02,0-.04,0-.06,0h0Z"/><path class="cls-2" d="M18.16,48.69c-.43,0-.79-.34-.81-.78-.09-1.93-.09-3.88-.02-5.81.02-.45.39-.79.84-.78.45.02.8.39.78.84-.07,1.88-.07,3.79.02,5.68.02.45-.33.83-.77.85h-.04Z"/><path class="cls-2" d="M77.86,80.16c-.44,0-.8-.35-.81-.8l-.18-8.97c0-.45.35-.82.79-.83.45,0,.82.35.83.79l.18,8.97c0,.45-.35.82-.79.83h-.02Z"/></svg>