<?xml version="1.0" encoding="UTF-8"?>
<svg id="Layer_1" data-name="Layer 1" xmlns="http://www.w3.org/2000/svg" viewBox="0 0 863.28 850.39">
  <defs>
    <style>
      .cls-1 {
        opacity: .13;
      }

      .cls-2 {
        fill: #492f8e;
      }

      .cls-2, .cls-3 {
        stroke-width: 0px;
      }

      .cls-3 {
        fill: #010101;
      }
    </style>
  </defs>
  <g>
    <path class="cls-2" d="M410.01,160.71c31.75.19,58.76-1.99,90.51-1.79,11.24.07,25.44-1.94,28.56-12.74,1.53-5.31-.42-10.91-1.7-16.29-6.03-25.44,5.75-55.21,29.5-66.14,23.75-10.93,56.63,2.37,62.76,27.79,3.98,16.5-2.76,33.47-8.98,49.26-1.57,3.98-3.08,8.59-1.06,12.36,2.14,3.97,7.2,5.14,11.66,5.78,32.47,4.67,65.77,3.46,98.82-.63,3.01,33.6,3.97,70.54,2.87,104.25-19.89-10.86-45.21-12.94-65.18-2.22-19.96,10.72-32.53,35.29-26.39,57.1,1.44,5.13,3.91,10.11,7.88,13.66,3.3,2.94,7.47,4.74,11.72,5.98,21.87,6.37,45.09-1.37,68.38-10.93-6.72,40.63-8.69,80.58-3.29,122.33-34.24,2.29-64.94,3.04-98.71,1.83,10.08,26.74,3.8,58.35-21.4,72.27-5.65,3.12-11.96,6.87-18.42,6.91-5.45.03-11.62-3.83-16.63-5.99-28.68-12.34-39.01-48.41-31.57-77.31-35.6-.49-71.2,3.1-106.31-.84-2.05-33.09-3.48-57.22-4.33-93.56-.04-1.59-.85-17.86,12.44-10.33,18.76,10.63,48.1,8.86,64.45-5.2,16.35-14.06,20.94-42.18,10.58-61.09-10.36-18.91-39.15-25.76-58.76-16.8-5.32,2.43-10.12,6-15.65,7.93-5.53,1.93-9.19,6.6-13.31,2.43-3.69-3.74-3.33-15.84-3.54-21.09-1.22-30.01-1.65-59.23-4.93-86.95Z"/>
    <path class="cls-2" d="M577.49,536.8c-5.78,0-11.16-2.61-15.9-4.92-1.27-.62-2.48-1.2-3.54-1.66-29.52-12.7-41.48-47.2-37.51-76.76-9.53.03-19.13.28-28.49.53-22.88.61-46.53,1.24-69.8-1.37-3.52-.4-6.26-3.27-6.47-6.81-2.15-34.73-3.52-58.37-4.34-93.84-.32-11.14,3.74-15.94,7.2-18.02,3.11-1.88,8.44-3.19,16.14,1.17,16.66,9.44,42.35,7.44,56.09-4.38,13.56-11.66,17.74-35.98,8.94-52.04-8.01-14.61-32.44-21.38-49.32-13.67-1.9.87-3.8,1.95-5.82,3.09-3.24,1.84-6.58,3.73-10.46,5.09-1.05.37-2.16.97-3.33,1.62-3.23,1.77-10.8,5.92-17.58-.95-4.81-4.87-5.37-13.48-5.58-23.39-.02-.95-.04-1.81-.07-2.53-.25-6.26-.47-12.49-.69-18.67-.84-23.69-1.63-46.06-4.19-67.71-.25-2.08.41-4.16,1.81-5.73,1.4-1.56,3.4-2.39,5.49-2.43,15.73.1,30.59-.41,44.97-.89,14.52-.49,29.52-1,45.55-.9,7.21.05,19.59-.87,21.49-7.46.75-2.59-.17-6.18-1.13-9.97-.22-.88-.44-1.75-.65-2.61-7.08-29.84,7.66-62.55,33.55-74.46,14.03-6.46,31.34-5.98,46.31,1.28,13.69,6.64,23.39,18.1,26.61,31.44,4.5,18.65-2.77,37.1-9.18,53.37l-.11.28c-1.75,4.45-1.64,5.81-1.42,6.22.11.2.92,1.24,6.27,2.01,28.51,4.1,60.2,3.89,96.88-.65,1.96-.24,3.94.32,5.48,1.57,1.54,1.24,2.51,3.06,2.69,5.03,2.99,33.37,4.02,70.71,2.89,105.14-.08,2.53-1.47,4.84-3.68,6.1-2.2,1.26-4.9,1.28-7.12.07-19.05-10.41-41.36-11.25-58.22-2.2-17.79,9.55-27.81,30.94-22.82,48.69,1.25,4.44,3.22,7.96,5.71,10.18,2.05,1.83,4.97,3.28,8.9,4.42,20.26,5.9,42.52-2.04,63.57-10.67,2.45-1,5.25-.6,7.32,1.05,2.07,1.65,3.09,4.29,2.65,6.9-7.1,42.92-8.16,82.24-3.25,120.2.26,2-.32,4.01-1.6,5.57-1.28,1.56-3.14,2.52-5.16,2.65-32.57,2.18-60.55,2.86-89.26,2.15,6.79,29.15-4.03,57.93-27.8,71.05l-1.12.62c-5.74,3.19-12.89,7.16-20.79,7.2h-.1ZM522.37,438.85c2.37,0,4.73.01,7.09.05,2.24.03,4.34,1.09,5.7,2.87s1.83,4.09,1.27,6.26c-6.5,25.22,1.96,57.84,27.38,68.78,1.38.59,2.79,1.28,4.16,1.94,3.16,1.54,7.1,3.45,9.52,3.45h.03c4.16-.02,9.05-2.74,13.78-5.36l1.15-.64c22.81-12.59,26.37-41.37,18.1-63.3-.86-2.29-.52-4.85.9-6.84,1.43-1.99,3.75-3.12,6.19-3.04,29.56,1.06,57.7.66,90.28-1.33-3.6-33.21-2.84-67.45,2.31-104.1-19.45,7.2-40.79,12.47-61.29,6.5-6.07-1.77-10.82-4.23-14.54-7.54-4.64-4.13-8.02-9.9-10.06-17.13-6.88-24.48,6-52.65,29.97-65.51,18.05-9.69,40.83-10.49,61.61-2.59.53-28.1-.33-57.63-2.49-84.88-34.84,3.82-65.4,3.73-93.22-.27-3.87-.56-12.92-1.86-17.05-9.55-3.8-7.07-.77-14.78.69-18.49l.11-.28c5.89-14.96,11.98-30.44,8.57-44.6-2.19-9.08-9.03-16.99-18.78-21.72-11.08-5.37-23.72-5.8-33.83-1.15-19.8,9.11-30.98,34.51-25.45,57.83.19.79.39,1.58.59,2.38,1.34,5.26,2.86,11.22,1.01,17.62-2.39,8.3-10.52,18.21-35.62,18.02-15.73-.1-30.59.41-44.97.89-12.02.41-24.38.82-37.37.9,1.94,19.63,2.65,39.68,3.4,60.75.22,6.16.44,12.36.69,18.6.03.8.05,1.76.07,2.82.05,2.38.18,8.82,1,12.13.19-.1.37-.2.54-.29,1.49-.82,3.34-1.83,5.53-2.6,2.63-.92,5.28-2.42,8.07-4.01,2.2-1.25,4.47-2.54,6.95-3.67,23.97-10.96,56.47-1.46,68.2,19.93,12.04,21.97,6.44,54.08-12.22,70.13-18.27,15.71-50.93,18.41-72.81,6.01-.49-.28-.9-.48-1.24-.63-.19.86-.36,2.22-.3,4.25v.19c.78,33.06,2.02,55.82,3.94,87.08,20.37,1.78,41.35,1.22,61.69.68,10.06-.27,20.4-.54,30.72-.54ZM423.88,263.86h0Z"/>
  </g>
  <path class="cls-2" d="M278.71,819.28c-.29,0-.58,0-.88,0-19.15-.35-37.22-12.77-43.94-30.2-4.03-10.45-3.91-21.24-3.8-31.69.02-2.18.05-4.36.03-6.52l-104.26.52c-2.17,0-4.2-.93-5.6-2.57-1.4-1.64-2-3.81-1.64-5.93,6.29-37.75,8.54-72.67,6.89-106.75-.13-2.66,1.2-5.18,3.47-6.57,2.27-1.39,5.12-1.44,7.43-.13,14.43,8.2,31.09,8.77,44.56,1.53,13.27-7.13,22.13-21.49,22.05-35.74-.08-14.45-10.02-28.57-23.11-32.84-4.57-1.49-9.86-2.08-16.17-1.79-10.38.47-20.77,3.19-30.04,7.87-2.18,1.1-4.78,1.04-6.9-.17-2.13-1.21-3.51-3.41-3.67-5.85-2.53-36.82-2.99-72.31-1.46-111.7.16-4.03,3.55-7.17,7.58-7.01,4.03.16,7.17,3.55,7.01,7.58-1.36,35.18-1.12,67.19.79,99.86,8.36-3,17.21-4.76,26.04-5.16,8.09-.36,15.08.45,21.35,2.5,19.12,6.23,33.08,25.85,33.19,46.65.11,19.5-11.85,39.07-29.74,48.68-14.43,7.75-31.46,8.86-47.37,3.41.65,28.78-1.36,58.24-6.13,89.5l95.68-.47c2.38-.01,7.96-.04,11.69,4.35,2.88,3.39,2.93,7.49,2.95,9.46.03,2.48,0,4.97-.02,7.47-.1,9.48-.2,18.44,2.82,26.28,4.56,11.84,17.42,20.6,30.58,20.85,13.01.27,26.3-7.49,33.07-19.23,7.03-12.2,6.84-27.16-.53-41.06-1.11-2.1-1.13-4.61-.06-6.73,1.08-2.12,3.12-3.58,5.47-3.92,39.29-5.63,78.96-4.57,117.89,3.15,3.96.78,6.53,4.63,5.74,8.58-.78,3.96-4.63,6.53-8.58,5.74-34.18-6.77-68.95-8.19-103.49-4.24,5.31,15.62,4.05,32.16-3.8,45.77-9.34,16.2-26.97,26.55-45.11,26.55Z"/>
  <path class="cls-3" d="M247.36,463.43c-.43,0-.85-.04-1.28-.11-33.34-5.94-65.27-5.25-99.07-4.51-6.57.14-13.21.29-19.92.38-1.96.05-3.83-.72-5.22-2.09-1.39-1.37-2.18-3.23-2.19-5.18-.02-4.99-.02-10.28-.03-15.75-.01-25.69-.03-54.8-1.79-77.65-.03-.43-.08-1.09-.16-1.6-1.47.19-4.56,1.29-8.14,3.92-1.56,1.14-3.16,2.38-4.8,3.65-9.27,7.15-19.83,15.26-32.16,15.19-19.59-.1-34.27-6.43-42.48-18.28-7.96-11.51-12.39-26.56-12.8-43.53-.46-18.85,4.01-35.71,12.93-48.76,5.81-8.51,13.36-15.11,21.81-19.09,17.23-8.1,38.73-6.13,63.91,5.87,3.52,1.68,5.04,2.06,5.69,2.01.4-1.2.32-4.26.26-6.15-.03-1.2-.06-2.39-.05-3.53.5-36.16,1.08-60.64,4.87-95.75.39-3.6,3.35-6.37,6.97-6.51,31.12-1.23,62.67-.86,93.77,1.1,2.32.15,4.43,1.39,5.69,3.34,1.26,1.96,1.51,4.39.67,6.56-2.11,5.5-4.3,9.59-6.23,13.2-3.59,6.71-5.76,10.76-5.11,19.87,2.78,39.23,32.33,46.33,42.47,45.73,9.89-.59,18.56-7.36,24.09-12.93,9.93-10.01,14.16-16.09,12.91-32.33-.4-5.27-1.87-9.57-3.42-14.12-2.07-6.05-4.41-12.91-3.91-21.93.21-3.8,3.31-6.81,7.12-6.9,13.29-.31,26.57.39,40.64,1.13,20.53,1.08,41.77,2.2,67.06.54,1.97-.13,3.91.55,5.38,1.87,1.47,1.33,2.33,3.19,2.4,5.16l3.51,100.97c.06,1.58.2,5.78,1.29,6.76,1.82,1.64,9.6-4.07,12.92-6.51l1.42-1.04c20.14-14.65,51.28-11.01,68.02,7.94,16.4,18.58,17.14,48.72,1.7,68.62-14.9,19.19-43.47,26.75-66.46,17.59-12.54-5-15.96-4.54-16.63-3.28-.48.92-.32,3.36-.21,4.98,2.11,31.6,4.29,64.27,6.08,98.9.1,2-.62,3.96-2.01,5.41-1.38,1.45-3.32,2.32-5.31,2.27l-100.29-.29c-2.68,0-5.18-1.48-6.45-3.84s-1.18-5.23.29-7.47c9.88-15.03,9.66-35.75-.51-49.26-9.8-13.01-35.38-22.06-50.17-13.66-9.92,5.63-15.78,15.58-17.44,29.57-1.37,11.57,1.02,24.83,7.12,39.41,1.03,2.47.63,5.3-1.04,7.38-1.4,1.75-3.5,2.74-5.7,2.74ZM179.89,443.72c18.76,0,37.32.7,56.41,3.28-3.8-12.43-5.08-24.1-3.81-34.82,2.21-18.6,10.76-32.62,24.74-40.55,22.03-12.5,55.21-.81,69.05,17.58,11.32,15.03,13.62,36.5,6.76,54.79l80.86.24c-1.7-31.68-3.71-61.79-5.66-90.98-.22-3.26-.55-8.18,1.87-12.76,7.59-14.39,26.07-7.02,34.96-3.47,17.17,6.85,38.46,1.27,49.51-12.98,11.1-14.3,10.61-36.74-1.11-50-11.76-13.32-34.41-16.03-48.48-5.8l-1.37,1c-7.73,5.67-20.66,15.17-31.32,5.61-5.72-5.13-5.99-12.93-6.14-17.12l-3.25-93.52c-23.01,1.07-43.23,0-61.27-.95-11.07-.58-21.65-1.14-31.99-1.18.57,3.24,1.61,6.27,2.73,9.58,1.69,4.97,3.62,10.6,4.16,17.71,1.75,22.78-6.34,32.89-17.1,43.73-10.5,10.58-22.12,16.54-33.59,17.22-20.67,1.24-54.68-13.77-57.9-59.28-.94-13.32,2.82-20.35,6.8-27.79.4-.74.79-1.49,1.2-2.25-25.03-1.28-50.3-1.51-75.32-.7-3.13,31.22-3.66,54.58-4.13,88.1-.01.95.02,1.93.04,2.93.16,5.72.41,15.28-8.1,19.57-7.23,3.63-14.71.07-18.73-1.85-21.04-10.03-38.34-11.99-51.42-5.84-6.1,2.87-11.63,7.75-15.97,14.11-9.07,13.28-10.65,29.17-10.39,40.17.34,14.12,3.87,26.42,10.21,35.58,6.79,9.81,20.36,11.93,30.55,11.99,7.37-.02,15.76-6.44,23.16-12.15,1.74-1.34,3.44-2.65,5.09-3.87,3.42-2.5,12.25-8.14,20.42-6.44,3.83.8,6.9,3.02,8.88,6.42,1.78,3.05,2.02,6.25,2.19,8.37,1.8,23.4,1.82,52.81,1.83,78.76,0,2.82,0,5.6,0,8.31,4.17-.08,8.31-.17,12.42-.26,11.22-.24,22.24-.48,33.19-.48Z"/>
  <path class="cls-3" d="M129.6,88.39c-3.26,0-6.24-2.2-7.07-5.51-6.19-24.47-11.33-49.51-15.29-74.43-.63-3.98,2.08-7.72,6.07-8.36,3.98-.64,7.72,2.08,8.36,6.07,3.89,24.49,8.94,49.1,15.02,73.14.99,3.91-1.38,7.88-5.29,8.87-.6.15-1.2.23-1.8.23Z"/>
  <path class="cls-3" d="M79.58,101.45c-2.18,0-4.33-.97-5.77-2.83-10.38-13.38-20.14-27.49-29-41.93-2.11-3.44-1.03-7.93,2.4-10.04,3.44-2.11,7.93-1.03,10.04,2.41,8.58,13.99,18.03,27.65,28.09,40.61,2.47,3.19,1.89,7.77-1.29,10.25-1.33,1.03-2.91,1.53-4.47,1.53Z"/>
  <path class="cls-3" d="M58.61,135.82c-.29,0-.59-.02-.88-.05-16.73-2.02-33.76-3.26-50.6-3.68-4.03-.1-7.22-3.45-7.12-7.48.1-4.03,3.45-7.24,7.48-7.12,17.31.43,34.8,1.7,51.99,3.78,4,.48,6.86,4.12,6.37,8.13-.45,3.71-3.6,6.43-7.24,6.43Z"/>
  <path class="cls-3" d="M716.21,850.39c-.31,0-.63-.02-.95-.06-4-.52-6.82-4.18-6.3-8.18l6.6-50.85c.52-4,4.18-6.82,8.18-6.3,4,.52,6.82,4.18,6.3,8.18l-6.6,50.85c-.48,3.68-3.62,6.36-7.23,6.36Z"/>
  <path class="cls-3" d="M791.29,819.38c-2.13,0-4.24-.92-5.68-2.71-8.96-11.06-17.45-22.7-25.23-34.61-2.21-3.38-1.26-7.9,2.12-10.11,3.38-2.2,7.9-1.26,10.11,2.12,7.51,11.5,15.7,22.74,24.35,33.41,2.54,3.13,2.06,7.73-1.08,10.27-1.35,1.1-2.98,1.63-4.59,1.63Z"/>
  <path class="cls-3" d="M796.93,743.83c-3.3,0-6.29-2.25-7.09-5.6-.94-3.92,1.47-7.86,5.39-8.81,19.68-4.74,39.87-8.21,60-10.31,4.01-.42,7.6,2.49,8.02,6.5.42,4.01-2.49,7.6-6.5,8.02-19.49,2.04-39.04,5.4-58.1,9.99-.57.14-1.15.2-1.71.2Z"/>
  <path class="cls-3" d="M491.13,752.62c-19.62,0-39.24-.55-58.73-1.66-3.74-.21-6.71-3.21-6.88-6.95-.45-9.55-.86-19.09-1.27-28.62-1.26-28.88-2.55-58.65-4.72-87.93-9.14,1.96-20.4,2.99-31.77.6-15.48-3.26-28.65-12.72-35.23-25.32-3.89-7.44-5.85-16.57-5.82-27.12.03-11.72,2.55-20.86,7.71-27.93,6.28-8.59,17.1-14.33,29.69-15.74,10.63-1.19,21.13.58,30.4,2.15,1.44.24,2.5.29,3.23.26,0-.04,0-.08,0-.12l-3.7-81.91c-.18-3.92,2.78-7.28,6.69-7.61,22.64-1.87,43.39-2.28,63.46-2.67,14.97-.29,29.11-.57,43.75-1.42,2.31-.14,4.54.83,6.02,2.6,1.48,1.77,2.04,4.14,1.5,6.38-3.82,16.04-2.38,26.61,1.63,40.51,3.76,13.04,15.64,25.75,28.25,30.21,9.95,3.52,22.26,1.6,32.12-5.01,19-12.74,24.9-41.78,12.38-60.92-1.52-2.32-1.59-5.31-.18-7.7,1.41-2.39,4.05-3.79,6.82-3.58,32.64,2.34,65.66,1.57,98.15-2.27,1.99-.23,4,.36,5.54,1.65,1.54,1.29,2.48,3.16,2.6,5.16l.41,6.86c1.93,31.99,3.63,60.18,3.56,83.13,3.6-1.08,7.07-2.21,10.65-3.39,11.64-3.81,26.13-8.56,40.7-6.19,22.89,3.71,40.27,31.41,41.54,53.96,1.23,21.81-11.56,43.74-31.83,54.57-18.74,10.01-44.41,1.99-58.04-3.68l-.22-.09c-.32-.13-.72-.3-1.12-.46-.04.55-.06,1.26-.03,2.18.57,16.32,1.96,34.6,3.3,52.28,1.35,17.82,2.75,36.25,3.33,52.87.07,1.98-.67,3.9-2.04,5.33-1.37,1.43-3.27,2.23-5.25,2.23-39.13.04-76.72,1.49-111.75,4.31-2.4.19-4.74-.81-6.26-2.68-1.52-1.87-2.01-4.37-1.33-6.68.46-1.55.92-3.09,1.38-4.62,3.32-11,6.45-21.38,6.94-31.69.59-12.14-2.91-22.93-9.59-29.59-5.09-5.08-12.46-7.82-20.74-7.68-9.83.15-19.48,4.27-25.82,11-11.8,12.53-15.25,33.12-8.8,52.48,1.1,3.31,2.15,5.57,3.41,7.33,1.54,2.17,1.78,5,.63,7.4-1.15,2.4-3.52,3.98-6.17,4.13-19.42,1.1-38.97,1.64-58.53,1.64ZM439.8,736.74c32.61,1.64,65.57,1.71,98.2.21-.02-.07-.05-.14-.07-.21-8.13-24.38-3.41-50.72,12.02-67.11,8.99-9.55,22.54-15.38,36.23-15.59,12.27-.21,23.38,4.05,31.29,11.94,9.59,9.57,14.64,24.38,13.86,40.64-.49,10.18-2.97,19.74-5.87,29.59,30.03-2.15,61.79-3.33,94.67-3.52-.68-14.31-1.85-29.74-2.99-44.74-1.35-17.82-2.75-36.25-3.33-52.87-.38-10.87,4.23-15.15,8.16-16.82,5.24-2.22,10.22-.14,13.2,1.1l.21.09c19.14,7.96,35.74,9.52,45.55,4.28,15.11-8.08,25.03-24.88,24.13-40.87-.94-16.62-13.94-37.87-29.29-40.36-11.06-1.8-23.15,2.16-33.82,5.66-6.48,2.12-13.18,4.32-20.94,6.19-2.21.53-4.55,0-6.32-1.43-1.77-1.43-2.77-3.61-2.7-5.89.7-23.69-1.17-54.8-3.34-90.82-26.76,2.77-53.83,3.52-80.72,2.23,8.44,24.52-.38,54.29-22.34,69.02-13.61,9.13-30.9,11.68-45.12,6.65-17.25-6.1-32.29-22.15-37.42-39.93-3.7-12.81-5.61-24.21-3.61-38.49-11.62.51-23.03.73-34.97.97-17.74.35-36.01.71-55.53,2.09l3.38,74.84c.08,1.85.21,4.65-1.07,7.57-1.62,3.68-6.25,9.53-19.18,7.35-8.73-1.48-17.75-3-26.34-2.04-8.53.96-15.65,4.55-19.52,9.84-3.28,4.49-4.88,10.82-4.9,19.34-.02,8.16,1.38,15,4.17,20.33,4.58,8.77,14.03,15.41,25.29,17.78,12.3,2.59,24.84.04,33.2-2.56,2.12-.66,4.42-.32,6.26.93,1.84,1.24,3.01,3.25,3.19,5.46,2.6,32.33,4.03,65.28,5.42,97.15.32,7.32.64,14.65.97,21.98Z"/>
  <g class="cls-1">
    <path class="cls-3" d="M149.62,436.83c-3.79,0-7-2.93-7.28-6.78-2.4-33.21-3.15-66.92-2.23-100.2.11-4.03,3.47-7.23,7.5-7.1,4.03.11,7.21,3.47,7.1,7.5-.9,32.8-.16,66.03,2.2,98.75.29,4.02-2.74,7.52-6.76,7.81-.18.01-.36.02-.53.02Z"/>
  </g>
  <g class="cls-1">
    <path class="cls-3" d="M163.41,438.14c-3.89,0-7.12-3.06-7.29-6.98-.77-17.35-.82-34.94-.15-52.3.15-4.03,3.54-7.14,7.58-7.02,4.03.15,7.17,3.55,7.02,7.58-.65,16.95-.6,34.14.14,51.09.18,4.03-2.94,7.44-6.97,7.62-.11,0-.22,0-.33,0Z"/>
  </g>
  <g class="cls-1">
    <path class="cls-3" d="M700.62,721.35c-3.96,0-7.22-3.17-7.3-7.16l-1.63-80.71c-.08-4.03,3.12-7.37,7.15-7.45,4.03-.04,7.37,3.12,7.45,7.15l1.63,80.71c.08,4.03-3.12,7.37-7.15,7.45-.05,0-.1,0-.15,0Z"/>
  </g>
</svg>